<?xml version="1.0" encoding="utf-8"?>
<!-- Generator: Adobe Illustrator 24.0.1, SVG Export Plug-In . SVG Version: 6.00 Build 0)  -->
<svg version="1.1" id="Layer_1" xmlns="http://www.w3.org/2000/svg" xmlns:xlink="http://www.w3.org/1999/xlink" x="0px" y="0px"
	 viewBox="0 0 100 100" style="enable-background:new 0 0 100 100;" xml:space="preserve">
<path d="M75.22,16.7H49H22.78c-1.68,0-3.04,1.36-3.04,3.04v1.43c0,1.68,1.36,3.04,3.04,3.04h19.73c1.68,0,3.04,1.36,3.04,3.04v4.08
	h-7c-1.45,0-2.62,2.33-2.62,5.2v42.72c0,2.87,1.17,5.2,2.62,5.2H49h10.45c1.45,0,2.62-2.33,2.62-5.2V36.52c0-2.87-1.17-5.2-2.62-5.2
	h-7v-4.08c0-1.68,1.36-3.04,3.04-3.04h19.73c1.68,0,3.04-1.36,3.04-3.04v-1.43C78.25,18.06,76.89,16.7,75.22,16.7z M55.01,43.93
	c0,2.22-1.24,4.13-3.05,5.14v28.02h-5.73V49.07c-1.81-1.01-3.05-2.92-3.05-5.14c0-2.22,1.24-4.13,3.05-5.14v5.35
	c0,0.57,0.46,1.04,1.04,1.04h3.65c0.57,0,1.04-0.47,1.04-1.04v-5.35C53.77,39.8,55.01,41.71,55.01,43.93z"/>
</svg>
